<?xml version="1.0" encoding="UTF-8"?>
<svg xmlns="http://www.w3.org/2000/svg" version="1.1">
    <circle style="fill:#000000" cx="64" cy="64" r="64" />
    <path   style="fill:#ffffff" d="m 92.209588,54.882376 c 1.27377,-8.5172 -5.21154,-13.0943 -14.07818,-16.1485 l 2.87555,-11.5359 -7.02132,-1.7502 -2.800875,11.232 c -1.847994,-0.4604 -3.742212,-0.8943 -5.627539,-1.3236 l 2.818659,-11.3067 -7.016867,-1.7502 -2.879104,11.5342 c -1.527995,-0.3483 -3.027547,-0.6915 -4.48443,-1.0543 l 0.0071,-0.035 -9.683527,-2.4178 -1.868438,7.4997 c 0,0 5.209762,1.1938 5.099539,1.2683 2.844436,0.7103 3.357325,2.5921 3.271991,4.0837 l -3.275546,13.1422 c 0.195555,0.05 0.448887,0.121 0.729775,0.2347 -0.234665,-0.058 -0.484443,-0.121 -0.74133,-0.1836 l -4.591986,18.4089 c -0.348443,0.86383 -1.231107,2.16073 -3.218656,1.66843 0.07022,0.1022 -5.106652,-1.27373 -5.106652,-1.27373 l -3.484434,8.03633 9.13775,2.2782 c 1.698661,0.4258 3.367101,0.8703 5.006207,1.2917 l -2.903992,11.6684 7.014201,1.750204 2.877325,-11.544004 c 1.918215,0.5192 3.777767,1 5.598206,1.4525 l -2.867548,11.489604 7.0222,1.7502 2.90666,-11.646104 c 11.975961,2.2649 20.981271,1.3512 24.769701,-9.4782 3.0551,-8.72003 -0.1511,-13.75033 -6.45154,-17.03113 4.58755,-1.0578 8.04531,-4.0766 8.96709,-10.3093 z m -16.04351,22.49863 c -2.17244,8.721 -16.85328,4.0063 -21.615932,2.8233 l 3.85599,-15.45693 c 4.759985,1.1865 20.026602,3.5386 17.759942,12.63363 z m 2.16889,-22.62403 c -1.97867,7.9325 -14.199961,3.9014 -18.164393,2.913 l 3.495099,-14.0196 c 3.963545,0.9886 16.732394,2.8328 14.669294,11.1066 z" />
    <text transform="matrix(0.9693237,0.24578813,-0.24578818,0.96932344,0,0)" y="53.131268" x="29.875727" style="font-style:normal;font-variant:normal;font-weight:bold;font-stretch:normal;font-size:40.95999527px;font-family:'Gentium Book Basic';-inkscape-font-specification:'Bitstream Vera Sans Bold';fill:#fffff5;fill-opacity:1;stroke:none" xml:space="preserve">
        <tspan y="53.131268" x="29.875727" >s</tspan>
    </text>
    <text transform="matrix(0.9693237,0.24578813,-0.24578818,0.96932344,0,0)" y="52.814495" x="112.52624" style="font-style:normal;font-variant:normal;font-weight:bold;font-stretch:normal;font-size:40.95999527px;font-family:'Gentium Book Basic';-inkscape-font-specification:'Bitstream Vera Sans Bold';fill:#fffff5;fill-opacity:1;stroke:none" xml:space="preserve">
        <tspan y="52.814495" x="112.52624">s</tspan>
    </text>
</svg>
