<?xml version="1.0" encoding="UTF-8"?>
<svg xmlns="http://www.w3.org/2000/svg" version="1.1" width="128" height="128">
    <circle style="fill:#0080ff" cx="64" cy="64" r="64" />
    <path   style="fill:#ffffff" d="m 110.76335,55.184758 c 1.27377,-8.51722 -5.21155,-13.09409 -14.078178,-16.14827 l 2.875535,-11.53617 -7.021302,-1.75023 -2.800885,11.23205 c -1.847993,-0.46039 -3.742208,-0.89415 -5.627536,-1.32341 l 2.818663,-11.3068 -7.016878,-1.75022 -2.879099,11.53433 c -1.527993,-0.34857 -3.027538,-0.69161 -4.484424,-1.05431 l 0.0082,-0.0348 -9.683538,-2.41766 -1.868431,7.49936 c 0,0 5.209764,1.19378 5.09954,1.26853 2.844427,0.71025 3.357328,2.59195 3.271988,4.08351 l -3.275551,13.14222 c 0.195584,0.0512 0.448901,0.12083 0.729784,0.2347 -0.23466,-0.0594 -0.484454,-0.12083 -0.741335,-0.18432 l -4.591984,18.40885 c -0.348447,0.86406 -1.231115,2.16086 -3.218658,1.66846 0.07025,0.1024 -5.106647,-1.27381 -5.106647,-1.27381 l -3.484426,8.03651 9.137746,2.2782 c 1.698652,0.4258 3.367096,0.8702 5.006193,1.2915 l -2.903983,11.6685 7.014196,1.750202 2.877337,-11.544002 c 1.918218,0.5192 3.777761,1.0001 5.598188,1.4525 l -2.867528,11.489702 7.022182,1.7502 2.906665,-11.646202 c 11.975967,2.2649 20.981266,1.3511 24.769706,-9.4781 3.0551,-8.71997 -0.15115,-13.75027 -6.45153,-17.03116 4.58754,-1.05779 8.0453,-4.07654 8.96708,-10.30943 z m -16.043521,22.49872 c -2.172437,8.721 -16.853279,4.0063 -21.615923,2.8232 l 3.855995,-15.45691 c 4.759982,1.18661 20.026593,3.53854 17.759928,12.63371 z m 2.168893,-22.62405 c -1.978654,7.93251 -14.199951,3.90144 -18.164387,2.91307 l 3.495096,-14.01958 c 3.963535,0.98836 16.732385,2.83279 14.669291,11.10651 z" />
    <text transform="matrix(0.93742694,0.26278955,-0.24695856,0.99751973,0,0)" y="65.136703" x="23.450649" style="font-style:normal;font-variant:normal;font-weight:bold;font-stretch:normal;font-size:64.66464233px;font-family:'Gentium Basic';-inkscape-font-specification:'Bitstream Vera Sans Bold';fill:#ffffff;fill-opacity:1;stroke:none" xml:space="preserve">
        <tspan y="65.136703" x="23.450649">m</tspan>
    </text>
</svg>
