<?xml version="1.0" encoding="UTF-8"?>
<svg xmlns="http://www.w3.org/2000/svg" version="1.1" width="128" height="128">
    <circle style="fill:#008000" cx="64" cy="64" r="64" />
    <path   style="fill:#ffffff" d="m 101.99779,57.617617 c 1.27377,-8.51731 -5.21152,-13.0942 -14.07818,-16.14843 l 2.87556,-11.53599 -7.02132,-1.75022 -2.80089,11.23199 c -1.84799,-0.46043 -3.74221,-0.89422 -5.62753,-1.32354 l 2.81866,-11.30668 -7.01686,-1.75022 -2.87912,11.53423 c -1.52799,-0.34845 -3.02754,-0.69157 -4.48442,-1.05423 l 0.008,-0.0356 -9.683516,-2.41779 -1.868452,7.49957 c 0,0 5.209764,1.19378 5.09954,1.26843 2.844447,0.71023 3.357327,2.59201 3.272008,4.08357 l -3.275551,13.14222 c 0.195584,0.0512 0.448881,0.12083 0.729764,0.2347 -0.23466,-0.0594 -0.484434,-0.12083 -0.741315,-0.18432 l -4.592004,18.40886 c -0.348427,0.864 -1.231094,2.1608 -3.218658,1.6685 0.07025,0.1004 -5.106646,-1.2739 -5.106646,-1.2739 l -3.484427,8.0366 9.137746,2.2782 c 1.698673,0.4258 3.367096,0.8702 5.006213,1.2915 l -2.904003,11.668503 7.014216,1.7502 2.877317,-11.544003 c 1.918218,0.519 3.777758,1 5.598208,1.4525 l -2.86755,11.489703 7.0222,1.7502 2.90665,-11.646203 c 11.97596,2.2649 20.98129,1.3511 24.76972,-9.4781 3.05508,-8.7202 -0.15114,-13.75031 -6.45155,-17.03121 4.58754,-1.05779 8.04532,-4.07654 8.96709,-10.30942 z m -16.0435,22.49875 c -2.17243,8.7208 -16.85328,4.0063 -21.61594,2.8231 l 3.85599,-15.45684 c 4.75999,1.18661 20.02662,3.53853 17.75995,12.63374 z m 2.16887,-22.62409 c -1.97865,7.93252 -14.19995,3.90144 -18.16438,2.91287 l 3.49511,-14.01951 c 3.96354,0.98845 16.73239,2.8329 14.66927,11.10664 z"/>
    <text transform="matrix(0.95530581,0.2540909,-0.24744319,0.98097062,0,0)" y="70.593231" x="27.4209" style="font-style:normal;font-variant:normal;font-weight:bold;font-stretch:normal;font-size:68.72815704px;font-family:'Gentium Basic';-inkscape-font-specification:'Bitstream Vera Sans Bold';fill:#ffffff;fill-opacity:1;stroke:none" xml:space="preserve">
        <tspan y="70.593231" x="27.4209">u</tspan>
    </text>
</svg>