<?xml version="1.0" encoding="UTF-8"?>
<svg xmlns="http://www.w3.org/2000/svg" version="1.1" width="128" height="128">
    <circle style="fill:#f7931a" cx="64" cy="64" r="64" />
    <path   style="fill:#ffffff" d="M 92.209045,54.88283 C 93.482817,46.3654 86.99753,41.78853 78.130895,38.73435 L 81.006445,27.19838 73.985136,25.44816 71.184276,36.68 C 69.336267,36.21961 67.442055,35.78585 65.556731,35.35659 L 68.375388,24.04979 61.358544,22.29957 58.47945,33.8339 c -1.528009,-0.34857 -3.027552,-0.69161 -4.484436,-1.05431 l 0.0082,-0.0348 -9.6835,-2.41786 -1.868447,7.49956 c 0,0 5.209753,1.19378 5.09953,1.26853 2.844442,0.71005 3.35732,2.59195 3.272002,4.08351 l -3.275545,13.14222 c 0.195584,0.0512 0.44888,0.12083 0.729763,0.2347 -0.23466,-0.0594 -0.484433,-0.12288 -0.741314,-0.18432 l -4.591997,18.40885 c -0.348425,0.86402 -1.231091,2.16112 -3.218631,1.66852 0.07025,0.1024 -5.106657,-1.27387 -5.106657,-1.27387 l -3.484419,8.03657 9.137728,2.2782 c 1.698669,0.4258 3.36709,0.8702 5.006204,1.2915 l -2.903997,11.6685 7.014203,1.7502 2.877311,-11.544 c 1.918214,0.5192 3.777754,1.0001 5.598198,1.4525 l -2.867543,11.4899 7.022189,1.7502 2.90664,-11.6464 c 11.975943,2.2649 20.981248,1.3511 24.769673,-9.4781 3.055077,-8.72003 -0.151142,-13.75033 -6.451536,-17.03122 4.587531,-1.0578 8.045307,-4.07634 8.967069,-10.30922 z M 76.165576,77.3814 c -2.172432,8.721 -16.853246,4.0063 -21.615902,2.8232 l 3.855987,-15.45697 c 4.759972,1.18661 20.026575,3.53874 17.759915,12.63377 z m 2.168869,-22.62391 c -1.978651,7.93231 -14.199924,3.90123 -18.164354,2.91287 l 3.49511,-14.01958 c 3.963528,0.98836 16.732355,2.83279 14.669244,11.10671 z" />
</svg>
